# xmcd
#
# Track frame offsets: 
#        150
#        15978
#        31957
#        50977
#        69661
#        83824
#
# Disc length: 1347 seconds
#
# Revision: 0
# Processed by: cddbd v1.5.2PL0 Copyright (c) Steve Scherf et al.
# Submitted via: ExactAudioCopy v0.95b4
#
DISCID=47054106
DTITLE=Seth Augustus - Seth Augustus
DYEAR=2006
DGENRE=Blues
TTITLE0=Slim Sam
TTITLE1=Buffalo 8
TTITLE2=Howling at Streetlamps
TTITLE3=The Same
TTITLE4=Oh Death (for Paul Pena)
TTITLE5=Tiny Little Head
EXTD=
EXTT0=
EXTT1=
EXTT2=
EXTT3=
EXTT4=
EXTT5=
PLAYORDER=
